# xmcd
#
# Track frame offsets:
#	150
#	15795
#	29534
#	45635
#	59709
#	75250
#	88607
#	103419
#	118963
#	136114
#	149449
#	163832
#
# Disc length: 2354 seconds
#
# Revision: 0
# Processed by: cddbd v1.4PL0 Copyright (c) Steve Scherf et al.
# Submitted via: audiograbber 1.81.03
#
DISCID=a009300c
DTITLE=Anne Kristin - Wild Mountain Callin`
DYEAR=2002
DGENRE=Country
TTITLE0=Lately Every Song On The Radio Makes Me Blue
TTITLE1=Bang Belt Buckles
TTITLE2=The Fire That Burns Forever
TTITLE3=Wild Mountain Callin`
TTITLE4=Can`t Push A River
TTITLE5=What Da Ya Mean
TTITLE6=Autumn Sunday
TTITLE7=You Won`t Be Mine
TTITLE8=My Goodbye
TTITLE9=In Care Of The Blues
TTITLE10=I Remember Patsy Cline
TTITLE11=He Was The Only One
EXTD=
EXTT0=
EXTT1=
EXTT2=
EXTT3=
EXTT4=
EXTT5=
EXTT6=
EXTT7=
EXTT8=
EXTT9=
EXTT10=
EXTT11=
PLAYORDER=
